<svg width="437" height="792" viewBox="0 0 437 792" fill="none" xmlns="http://www.w3.org/2000/svg">
<path d="M196.117 618.6C151.717 618.6 116.517 606.4 90.5172 582C64.9172 557.2 52.1172 524 52.1172 482.4H127.117C127.117 504.4 133.317 521.6 145.717 534C158.117 546.4 174.917 552.6 196.117 552.6C217.317 552.6 234.117 546.6 246.517 534.6C258.917 522.2 265.117 505 265.117 483V243.6H163.117V174H340.117V483C340.117 525 327.117 558.2 301.117 582.6C275.517 606.6 240.517 618.6 196.117 618.6Z" fill="#7FBC00"/>
<path d="M90.5172 582L89.8214 582.718L89.8271 582.724L89.8329 582.729L90.5172 582ZM52.1172 482.4V481.4H51.1172V482.4H52.1172ZM127.117 482.4H128.117V481.4H127.117V482.4ZM246.517 534.6L247.213 535.319L247.219 535.313L247.224 535.307L246.517 534.6ZM265.117 243.6H266.117V242.6H265.117V243.6ZM163.117 243.6H162.117V244.6H163.117V243.6ZM163.117 174V173H162.117V174H163.117ZM340.117 174H341.117V173H340.117V174ZM301.117 582.6L301.801 583.33L301.802 583.329L301.117 582.6ZM196.117 617.6C151.906 617.6 116.973 605.457 91.2015 581.271L89.8329 582.729C116.061 607.343 151.528 619.6 196.117 619.6V617.6ZM91.213 581.282C65.8401 556.702 53.1172 523.778 53.1172 482.4H51.1172C51.1172 524.222 63.9943 557.698 89.8214 582.718L91.213 581.282ZM52.1172 483.4H127.117V481.4H52.1172V483.4ZM126.117 482.4C126.117 504.594 132.378 522.075 145.01 534.707L146.424 533.293C134.257 521.125 128.117 504.206 128.117 482.4H126.117ZM145.01 534.707C157.636 547.333 174.711 553.6 196.117 553.6V551.6C175.123 551.6 158.599 545.467 146.424 533.293L145.01 534.707ZM196.117 553.6C217.514 553.6 234.585 547.538 247.213 535.319L245.822 533.881C233.649 545.662 217.12 551.6 196.117 551.6V553.6ZM247.224 535.307C259.857 522.675 266.117 505.194 266.117 483H264.117C264.117 504.806 257.978 521.725 245.81 533.893L247.224 535.307ZM266.117 483V243.6H264.117V483H266.117ZM265.117 242.6H163.117V244.6H265.117V242.6ZM164.117 243.6V174H162.117V243.6H164.117ZM163.117 175H340.117V173H163.117V175ZM339.117 174V483H341.117V174H339.117ZM339.117 483C339.117 524.777 326.196 557.694 300.433 581.871L301.802 583.329C328.039 558.706 341.117 525.223 341.117 483H339.117ZM300.433 581.87C275.064 605.654 240.333 617.6 196.117 617.6V619.6C240.701 619.6 275.97 607.546 301.801 583.33L300.433 581.87Z" fill="black"/>
<path d="M239.117 618.6C194.717 618.6 159.517 606.4 133.517 582C107.917 557.2 95.1172 524 95.1172 482.4H170.117C170.117 504.4 176.317 521.6 188.717 534C201.117 546.4 217.917 552.6 239.117 552.6C260.317 552.6 277.117 546.6 289.517 534.6C301.917 522.2 308.117 505 308.117 483V243.6H206.117V174H383.117V483C383.117 525 370.117 558.2 344.117 582.6C318.517 606.6 283.517 618.6 239.117 618.6Z" fill="#115B73"/>
<path d="M133.517 582L132.821 582.718L132.827 582.724L132.833 582.729L133.517 582ZM95.1172 482.4V481.4H94.1172V482.4H95.1172ZM170.117 482.4H171.117V481.4H170.117V482.4ZM289.517 534.6L290.213 535.319L290.218 535.313L290.224 535.307L289.517 534.6ZM308.117 243.6H309.117V242.6H308.117V243.6ZM206.117 243.6H205.117V244.6H206.117V243.6ZM206.117 174V173H205.117V174H206.117ZM383.117 174H384.117V173H383.117V174ZM344.117 582.6L344.801 583.33L344.802 583.329L344.117 582.6ZM239.117 617.6C194.906 617.6 159.973 605.457 134.202 581.271L132.833 582.729C159.061 607.343 194.528 619.6 239.117 619.6V617.6ZM134.213 581.282C108.84 556.702 96.1172 523.778 96.1172 482.4H94.1172C94.1172 524.222 106.994 557.698 132.821 582.718L134.213 581.282ZM95.1172 483.4H170.117V481.4H95.1172V483.4ZM169.117 482.4C169.117 504.594 175.378 522.075 188.01 534.707L189.424 533.293C177.257 521.125 171.117 504.206 171.117 482.4H169.117ZM188.01 534.707C200.636 547.333 217.711 553.6 239.117 553.6V551.6C218.123 551.6 201.599 545.467 189.424 533.293L188.01 534.707ZM239.117 553.6C260.514 553.6 277.585 547.538 290.213 535.319L288.822 533.881C276.649 545.662 260.12 551.6 239.117 551.6V553.6ZM290.224 535.307C302.857 522.675 309.117 505.194 309.117 483H307.117C307.117 504.806 300.978 521.725 288.81 533.893L290.224 535.307ZM309.117 483V243.6H307.117V483H309.117ZM308.117 242.6H206.117V244.6H308.117V242.6ZM207.117 243.6V174H205.117V243.6H207.117ZM206.117 175H383.117V173H206.117V175ZM382.117 174V483H384.117V174H382.117ZM382.117 483C382.117 524.777 369.196 557.694 343.433 581.871L344.802 583.329C371.039 558.706 384.117 525.223 384.117 483H382.117ZM343.433 581.87C318.064 605.654 283.333 617.6 239.117 617.6V619.6C283.701 619.6 318.97 607.546 344.801 583.33L343.433 581.87Z" fill="black"/>
</svg>
